<svg id="Capa_1" data-name="Capa 1" xmlns="http://www.w3.org/2000/svg" viewBox="0 0 485.21 485.21"><defs><style>.cls-1{fill:#0b428a;}</style></defs><path class="cls-1" d="M242.61,0C108.63,0,0,108.63,0,242.61s108.63,242.6,242.61,242.6,242.6-108.63,242.6-242.6S376.58,0,242.61,0ZM370.72,354l-19.43,19.43c-3.46,3.46-13.62,5.62-13.94,5.62A229.12,229.12,0,0,1,106.14,147.31s2.22-9.9,5.69-13.33l19.42-19.43c7.11-7.14,20.76-10.36,30.33-7.16l4.09,1.36c9.53,3.2,19.55,13.74,22.18,23.46l9.77,35.86c2.64,9.74-.92,23.6-8,30.71l-13,13a137.78,137.78,0,0,0,96.87,96.91l13-13c7.15-7.14,21-10.69,30.72-8.06L353,297.43c9.72,2.67,20.26,12.61,23.46,22.15l1.36,4.14C381,333.26,377.83,346.91,370.72,354Z" transform="translate(0 0)"/></svg>