<svg id="Capa_1" data-name="Capa 1" xmlns="http://www.w3.org/2000/svg" viewBox="0 0 469.11 469.33"><defs><style>.cls-1{fill:#5abaa0;}</style></defs><path class="cls-1" d="M228.5,22.2c-31.1,3.5-68.3,16.5-95.5,33.3C111,69.2,85.8,91.6,70.8,111c-25.6,33.1-41.7,71.2-48,113.5-2,13.6-1.7,51.2.5,65.5C33.6,356.5,70.4,414.5,126,451.6a239.57,239.57,0,0,0,96.6,37.1c16.4,2.4,50.4,2.4,66.8,0A241.26,241.26,0,0,0,403,439.3a237.51,237.51,0,0,0,85.7-148.5c2.5-15.9,2.5-53.7,0-69.6-8.3-52.4-32.9-99.5-70.8-135.6-37-35.2-86.1-58.1-136.1-63.5C270.4,20.8,239.9,20.9,228.5,22.2Zm53.8,140.9c14.4,6.1,36.1,15.3,48.2,20.3s24.3,10.3,27,11.6,16.5,7.1,30.5,13c45.1,19,50.2,21.3,48.8,22.1-.7.5-11.9,7-24.8,14.6l-23.5,13.9-.3,25.2c-.2,21.3,0,25.2,1.2,25.2,2.1,0,6.6,5.8,6.6,8.5s-2.1,3.5-11.2,3.5H378v-3.4c0-2.4.9-4.3,3-6.6l3-3.2V261.2l-17.9,10.1-17.9,10.2-.4,15-.3,15-4.2,8.5c-5,10.2-4.8,9.9-14.3,17.6-13.9,11.3-23.6,15.2-48.5,19.5-20.2,3.4-28.5,3.6-45.4.8-11.1-1.8-30.9-7.7-37.4-11-5.1-2.7-19.8-14.3-23.1-18.3-7-8.6-8-12.2-8.6-30.5l-.5-16.5-45.3-25.7c-24.9-14.2-45.3-26.1-45.3-26.5s8.7-4.4,19.3-8.9C132,204.4,180,184,214,169.6c19-8,35.9-15.3,37.5-16a19.32,19.32,0,0,1,3.8-1.5C255.8,152,267.9,157,282.3,163.1Zm116.4,172c2.2,5.9,2.3,6.3.6,8.2-3,3.2-6.9,4.7-12.8,4.7-6.2,0-10.6-1.9-12.5-5.4-.8-1.7-.7-3,.6-6.1.9-2.2,2-4.9,2.4-6,.7-1.8,1.6-2,10-1.9l9.3.2Z" transform="translate(-21.46 -21.17)"/><path class="cls-1" d="M82.6,228.9c.5.5,35.1,20.4,76.9,44.1s80.6,45.9,86.3,49.1c7.4,4.2,10.3,5.4,10,4.2-.4-1.9-169.2-98.2-172.2-98.3C82.3,228,82,228.3,82.6,228.9Z" transform="translate(-21.46 -21.17)"/></svg>